HIERARCHY
ROOT hip
{
	OFFSET 0.000000 0.000000 0.000000 
	CHANNELS 6 Xposition Yposition Zposition Xrotation Zrotation Yrotation
	JOINT abdomen
	{
		OFFSET 0.000000 3.402643 0.000000 
		CHANNELS 3 Xrotation Zrotation Yrotation
		JOINT chest
		{
			OFFSET 0.000000 8.438565 -0.680529 
			CHANNELS 3 Xrotation Zrotation Yrotation
			JOINT neck
			{
				OFFSET 0.000000 10.207942 -0.272212 
				CHANNELS 3 Xrotation Zrotation Yrotation
				JOINT head
				{
					OFFSET 0.000000 3.130431 0.000000 
					CHANNELS 3 Xrotation Zrotation Yrotation
					End Site
					{
						OFFSET 0.000000 3.130435 0.000000 
					}
				}
			}
			JOINT lCollar
			{
				OFFSET 3.470700 6.669187 -0.816635 
				CHANNELS 3 Yrotation Zrotation Xrotation
				JOINT lShldr
				{
					OFFSET 3.198488 0.000000 0.000000 
					CHANNELS 3 Zrotation Yrotation Xrotation
					JOINT lForeArm
					{
						OFFSET 10.139888 0.000000 0.000000 
						CHANNELS 3 Yrotation Zrotation Xrotation
						JOINT lHand
						{
							OFFSET 8.370511 0.000000 0.000000 
							CHANNELS 3 Zrotation Yrotation Xrotation
							End Site
							{
								OFFSET 4.083176 0.000000 0.000000 
							}
						}
					}
				}
			}
			JOINT rCollar
			{
				OFFSET -3.470700 6.669187 -0.816635 
				CHANNELS 3 Yrotation Zrotation Xrotation
				JOINT rShldr
				{
					OFFSET -3.198488 0.000000 0.000000 
					CHANNELS 3 Zrotation Yrotation Xrotation
					JOINT rForeArm
					{
						OFFSET -10.139888 0.000000 0.000000 
						CHANNELS 3 Yrotation Zrotation Xrotation
						JOINT rHand
						{
							OFFSET -8.370511 0.000000 0.000000 
							CHANNELS 3 Zrotation Yrotation Xrotation
							End Site
							{
								OFFSET -4.083176 0.000000 0.000000 
							}
						}
					}
				}
			}
		}
	}
	JOINT lThigh
	{
		OFFSET 5.308129 -1.633274 1.361059 
		CHANNELS 3 Xrotation Zrotation Yrotation
		JOINT lShin
		{
			OFFSET -2.041588 -20.007561 0.000000 
			CHANNELS 3 Xrotation Zrotation Yrotation
			JOINT lFoot
			{
				OFFSET 0.000000 -19.190928 -1.224953 
				CHANNELS 3 Xrotation Yrotation Zrotation
				End Site
				{
					OFFSET 0.000000 -2.449906 4.627600 
				}
			}
		}
	}
	JOINT rThigh
	{
		OFFSET -5.308129 -1.633274 1.361059 
		CHANNELS 3 Xrotation Zrotation Yrotation
		JOINT rShin
		{
			OFFSET 2.041588 -20.007561 0.000000 
			CHANNELS 3 Xrotation Zrotation Yrotation
			JOINT rFoot
			{
				OFFSET 0.000000 -19.190928 -1.224953 
				CHANNELS 3 Xrotation Yrotation Zrotation
				End Site
				{
					OFFSET 0.000000 -2.449906 4.627600 
				}
			}
		}
	}
}
MOTION
Frames: 15
Frame Time: 0.016667
22.210392 45.358109 38.963993 175.858994 179.542007 -0.941344 -17.794399 1.661550 2.960310 21.220699 0.205064 1.721160 15.781300 -2.254850 -0.284103 11.956500 5.719580 -0.568525 2.000000 -2.000000 0.000000 -84.944603 -1.558990 151.682999 43.193802 -0.314521 0.093635 0.047034 -0.027646 -146.843994 -2.000000 2.000000 0.000000 87.271500 -2.215550 154.037994 -28.398701 0.335112 0.065027 -0.074741 0.067049 -157.839996 -16.646271 0.374320 0.958425 30.415464 2.814000 2.246607 -12.468868 -6.169592 -3.113202 -14.710921 -4.415184 -0.510499 30.721939 -3.241576 -2.137370 167.470840 188.973236 -182.079697 
21.919436 45.363514 38.863678 176.171997 -179.570999 -1.152950 -17.675301 1.469900 3.032950 21.211000 0.507779 1.724640 15.054600 -2.293900 -0.386945 11.711000 5.713750 -0.594164 2.000000 -2.000000 0.000000 -84.632301 -1.744290 151.800003 43.633202 -0.313801 0.094397 0.047585 -0.030631 -147.927994 -2.000000 2.000000 0.000000 87.154503 -1.766880 154.292999 -28.017900 0.335542 0.064226 -0.064152 0.055080 -157.000000 -16.099854 -0.819499 1.285601 30.358791 2.792876 2.251805 -12.650716 -6.220144 -3.206325 -14.980768 -5.759995 -0.280504 32.032280 -3.229238 -2.217630 167.676849 188.318726 -181.890549 
21.618256 45.361198 38.793354 175.684006 -179.785995 -1.917420 -17.957001 1.518820 3.107770 21.123100 0.302720 1.760860 14.399700 -2.324230 -0.216929 11.485600 5.736560 -0.477287 2.000000 -2.000000 0.000000 -84.398598 -1.401140 152.444000 44.619598 -0.312162 0.096086 0.047852 -0.031972 -148.416000 -2.000000 2.000000 0.000000 87.233498 -1.719920 155.162003 -28.271799 0.335256 0.064760 -0.064227 0.055286 -157.078003 -16.469786 -0.728569 1.948790 30.332952 2.759028 2.263365 -12.666803 -6.211196 -3.203212 -16.013166 -5.803777 0.109758 32.671906 -3.143196 -2.293756 -11.341857 -7.891507 -1.748369 
21.326176 45.349491 38.700897 176.250000 179.766006 -1.929390 -17.893000 1.741490 2.923340 20.869101 0.332026 1.710850 14.285900 -2.366970 -0.440903 11.514900 5.726430 -0.583049 2.000000 -2.000000 0.000000 -84.408699 -1.175930 152.727005 44.746498 -0.311949 0.096301 0.047890 -0.032160 -148.483994 -2.000000 2.000000 0.000000 86.882500 -1.691830 155.718994 -28.594101 0.334890 0.065436 -0.064598 0.056286 -157.459000 -15.878803 -0.637286 1.886093 30.601135 2.825656 2.256666 -12.763659 -6.275185 -3.296262 -15.840453 -5.806636 -0.276078 33.834549 -3.117710 -2.360140 -10.929503 -7.358040 -1.615021 
21.027468 45.397240 38.625408 176.279007 -179.834000 -2.284150 -17.952999 1.559870 2.827700 20.761700 0.302732 1.631990 13.680400 -2.462430 -0.121126 11.299000 5.729660 -0.409179 2.000000 -2.000000 0.000000 -84.408401 -1.068900 152.541000 44.824699 -0.311818 0.096433 0.047197 -0.028561 -147.175995 -2.000000 2.000000 0.000000 87.009903 -1.321780 156.197998 -29.267900 0.334112 0.066844 -0.074702 0.066946 -157.800995 -15.482430 -1.444230 1.893990 30.058481 2.838970 2.209315 -12.370667 354.321625 -3.172040 -16.592329 -6.550923 0.394538 35.079460 -3.049395 -2.441752 -10.155608 -7.011002 -1.475631 
20.770439 45.433521 38.531940 176.807007 -179.785004 -2.741940 -17.729401 1.615270 2.781210 20.830099 0.429683 1.632980 13.724400 -2.325710 -0.029555 11.408100 5.805530 -0.349396 2.000000 -2.000000 0.000000 -84.496300 -1.176420 152.492996 44.385201 -0.312554 0.095687 0.046913 -0.026945 -146.589996 -2.000000 2.000000 0.000000 86.863602 -0.872951 156.375000 -29.648800 0.333665 0.067635 -0.074780 0.067151 -157.878998 -14.657176 -1.781584 2.302945 29.857048 2.887140 2.195233 -12.285950 354.563629 -3.131355 -16.763580 -6.917893 0.754550 36.260250 -3.021683 -2.495694 -9.491348 -6.677788 -1.345903 
20.539248 45.437519 38.494759 176.757996 179.444000 -3.156480 -17.868000 1.744020 2.707650 20.703100 0.107422 1.621390 12.621200 -2.246660 -0.196926 10.907000 5.774100 -0.395686 2.000000 -2.000000 0.000000 -84.388199 -1.031160 151.916000 44.082500 -0.313058 0.095169 0.045881 -0.019966 -144.070007 -2.000000 2.000000 0.000000 87.000397 -0.951332 156.492004 -30.781601 0.332305 0.069971 -0.076643 0.062030 -159.666000 -14.852687 -1.228775 2.147450 30.237978 2.909109 2.205162 -12.146842 354.885315 -3.078817 -17.148840 -6.235153 1.031580 36.666706 -2.980035 -2.525543 -8.607661 -6.912889 -1.334852 
20.345240 45.459267 38.405449 176.610001 178.498993 -3.428730 -17.618299 2.062890 2.558180 21.318399 0.097648 1.612640 12.337700 -2.946490 -0.558210 10.931400 5.414980 -0.523904 2.000000 -2.000000 0.000000 -84.475700 -1.354260 151.516006 43.682098 -0.313720 0.094481 0.045679 -0.018283 -143.464996 -2.000000 2.000000 0.000000 86.932503 -0.073541 157.001999 -31.260099 0.331716 0.070949 -0.077590 0.064242 -160.524994 -15.138346 -0.210192 2.762491 30.805365 2.938556 2.234018 -12.643384 354.449768 -3.189145 -17.438002 -5.314075 1.058649 36.851440 -2.901520 -2.576105 -7.901686 -7.550760 -1.432593 
20.173025 45.443047 38.383659 176.757004 178.585999 -3.107420 -17.849001 2.025410 2.207360 20.849600 0.380854 1.427790 12.197800 -2.810570 -0.501300 10.853500 5.454820 -0.497353 2.000000 -2.000000 0.000000 -84.504700 -0.924986 151.320007 43.301201 -0.314346 0.093822 0.045918 -0.020265 -144.177994 -2.000000 2.000000 0.000000 86.933899 -0.574908 158.503998 -32.910500 0.329625 0.074286 -0.079188 0.067781 -161.912003 -14.950397 -0.617791 2.289701 30.549314 2.942211 2.219071 -12.460746 354.660736 -3.178748 -17.713276 -5.555327 1.083563 37.659077 -2.869586 -2.622330 -7.759823 -7.910483 -1.512357 
20.032042 45.422970 38.336807 177.216995 179.755997 -3.654430 -17.792299 1.948910 2.058960 20.527300 1.347660 1.327440 11.422000 -2.270860 -0.236848 10.621400 5.710150 -0.334348 2.000000 -2.000000 0.000000 -85.070900 -0.700867 151.085007 42.852001 -0.315078 0.093039 0.046835 -0.026487 -146.423996 -2.000000 2.000000 0.000000 86.399200 -1.392020 161.432007 -35.371498 0.326329 0.079146 -0.080162 0.069832 -162.722000 -14.122643 -2.042715 2.797238 30.066841 2.946237 2.187376 -12.477001 -4.765036 -3.093917 -18.109110 -6.787104 1.662692 38.739052 -2.867788 -2.683117 -8.422598 -8.254491 -1.659865 
19.852859 45.407528 38.264580 177.421997 -179.873001 -4.369310 -18.137501 2.201310 1.229850 20.195000 2.460890 0.941516 11.221800 -2.835670 0.983931 10.387100 5.800630 0.648114 2.000000 -2.000000 0.000000 -86.299103 0.730856 149.237000 42.852001 -0.315078 0.093039 0.046590 -0.024975 -145.876999 -2.000000 2.000000 0.000000 85.306297 -1.170270 162.692001 -35.430099 0.326248 0.079260 -0.081472 0.072479 -163.776993 -13.771782 -2.636292 3.227018 30.028206 2.939457 2.186208 -12.565689 -4.458908 -3.040282 -18.337410 -7.184179 2.020911 38.837738 -2.854554 -2.677225 -9.186006 -7.855260 -1.703367 
19.712662 45.349739 38.239075 177.324005 179.755997 -4.220380 -18.146799 1.804460 1.811360 20.195200 1.406220 1.172770 11.316400 -2.403190 -0.111530 10.521700 5.595030 -0.259613 2.000000 -2.000000 0.000000 -84.914398 0.197181 150.897995 41.816799 -0.316741 0.091213 0.046543 -0.024678 -145.768997 -2.000000 2.000000 0.000000 86.545799 -1.031160 161.638000 -36.728901 0.324423 0.081764 -0.082562 0.074593 -164.626999 -14.084849 -2.134589 4.062609 30.402283 2.932396 2.199096 -12.929407 354.480194 -3.311012 -18.198244 -6.765206 1.746990 38.191906 -2.839587 -2.662696 -10.345023 -7.509300 -1.786792 
19.600773 45.303154 38.179314 177.354004 -179.804993 -4.326920 -18.241400 1.716190 1.992940 20.087700 1.689400 1.236180 12.065100 -1.287150 -0.109039 10.880600 5.987810 -0.235397 2.000000 -2.000000 0.000000 -84.583000 0.032371 151.473999 40.469200 -0.318857 0.088792 0.046214 -0.022460 -144.968994 -2.000000 2.000000 0.000000 86.712196 -1.423020 162.184006 -37.949600 0.322657 0.084080 -0.082817 0.075077 -164.822006 -14.015047 -2.717406 4.138548 30.364992 2.914540 2.204764 -12.640586 354.569366 -3.302297 -18.294064 -7.010198 2.180207 37.678902 -2.871743 -2.632460 -10.986888 -7.294747 -1.783100 
19.565723 45.307659 38.214474 177.080002 -179.716995 -4.262920 -18.262199 1.678390 1.891770 20.107100 2.080010 1.165340 11.347800 -1.318890 -0.537940 10.662800 5.864810 -0.400383 2.000000 -2.000000 0.000000 -84.465401 -0.612956 151.095001 39.131302 -0.320900 0.086339 0.045797 -0.019288 -143.826004 -2.000000 2.000000 0.000000 86.673698 -1.092840 162.994995 -38.633202 0.321646 0.085361 -0.083229 0.075849 -165.134995 -14.245765 -2.716789 4.460939 30.070694 2.906725 2.187460 -12.559667 354.406647 -3.304564 -18.472878 -6.760526 2.425653 36.755211 -2.876343 -2.569638 -11.484003 -7.243202 -1.803374 
19.388680 45.249107 37.998001 178.018005 179.940994 -5.490300 -17.717600 1.655050 2.358930 20.673901 1.572260 1.409730 12.048300 -1.256080 -0.477970 11.104000 5.819740 -0.330003 2.000000 -2.000000 0.000000 -84.348198 -1.042700 151.067001 37.910500 -0.322714 0.084061 0.045697 -0.018446 -143.522995 -2.000000 2.000000 0.000000 87.093803 -0.917569 163.220001 -39.707401 0.320027 0.087348 -0.082933 0.075294 -164.910004 -13.260900 -2.650770 5.016554 30.879105 2.984266 2.225509 -13.646609 -4.766768 -3.235877 -17.290550 -6.183330 3.415266 35.335968 -2.934211 -2.481536 -11.818603 -6.810902 -1.643302 
